<svg xmlns="http://www.w3.org/2000/svg" xmlns:xlink="http://www.w3.org/1999/xlink" width="40" zoomAndPan="magnify" viewBox="0 0 30 30.000001" height="40" preserveAspectRatio="xMidYMid meet" version="1.0"><defs><clipPath id="a5ef99f4e9"><path d="M 0.667969 0 L 28.976562 0 L 28.976562 28 L 0.667969 28 Z M 0.667969 0 " clip-rule="nonzero"/></clipPath></defs><path fill="#ffffff" d="M 26.230469 13.671875 C 26.230469 14.457031 26.152344 15.234375 26 16.003906 C 25.847656 16.773438 25.621094 17.523438 25.320312 18.25 C 25.019531 18.972656 24.652344 19.664062 24.214844 20.316406 C 23.777344 20.96875 23.28125 21.574219 22.726562 22.128906 C 22.171875 22.683594 21.566406 23.179688 20.914062 23.617188 C 20.261719 24.054688 19.570312 24.421875 18.84375 24.722656 C 18.121094 25.023438 17.371094 25.25 16.601562 25.402344 C 15.832031 25.558594 15.054688 25.632812 14.265625 25.632812 C 13.480469 25.632812 12.703125 25.558594 11.933594 25.402344 C 11.164062 25.25 10.414062 25.023438 9.6875 24.722656 C 8.964844 24.421875 8.273438 24.054688 7.621094 23.617188 C 6.96875 23.179688 6.363281 22.683594 5.808594 22.128906 C 5.253906 21.574219 4.757812 20.96875 4.320312 20.316406 C 3.882812 19.664062 3.515625 18.972656 3.214844 18.25 C 2.914062 17.523438 2.6875 16.773438 2.535156 16.003906 C 2.378906 15.234375 2.304688 14.457031 2.304688 13.671875 C 2.304688 12.886719 2.378906 12.105469 2.535156 11.335938 C 2.6875 10.566406 2.914062 9.816406 3.214844 9.09375 C 3.515625 8.367188 3.882812 7.675781 4.320312 7.023438 C 4.757812 6.371094 5.253906 5.765625 5.808594 5.210938 C 6.363281 4.65625 6.96875 4.160156 7.621094 3.722656 C 8.273438 3.285156 8.964844 2.917969 9.6875 2.617188 C 10.414062 2.316406 11.164062 2.089844 11.933594 1.9375 C 12.703125 1.785156 13.480469 1.707031 14.265625 1.707031 C 15.054688 1.707031 15.832031 1.785156 16.601562 1.9375 C 17.371094 2.089844 18.121094 2.316406 18.84375 2.617188 C 19.570312 2.917969 20.261719 3.285156 20.914062 3.722656 C 21.566406 4.160156 22.171875 4.65625 22.726562 5.210938 C 23.28125 5.765625 23.777344 6.371094 24.214844 7.023438 C 24.652344 7.675781 25.019531 8.367188 25.320312 9.09375 C 25.621094 9.816406 25.847656 10.566406 26 11.335938 C 26.152344 12.105469 26.230469 12.886719 26.230469 13.671875 Z M 26.230469 13.671875 " fill-opacity="1" fill-rule="nonzero"/><g clip-path="url(#a5ef99f4e9)"><path fill="#00bf63" d="M 24.769531 4.957031 C 24.425781 4.566406 24.0625 4.195312 23.679688 3.847656 C 23.296875 3.496094 22.894531 3.171875 22.472656 2.867188 C 22.050781 2.5625 21.613281 2.285156 21.160156 2.03125 C 20.707031 1.777344 20.242188 1.546875 19.761719 1.347656 C 19.285156 1.144531 18.796875 0.972656 18.296875 0.824219 C 17.800781 0.679688 17.292969 0.5625 16.78125 0.472656 C 16.269531 0.382812 15.757812 0.324219 15.238281 0.292969 C 14.71875 0.261719 14.199219 0.261719 13.683594 0.289062 C 13.164062 0.316406 12.648438 0.375 12.136719 0.460938 C 11.625 0.546875 11.117188 0.664062 10.621094 0.808594 C 10.121094 0.949219 9.632812 1.121094 9.152344 1.320312 C 8.671875 1.519531 8.207031 1.746094 7.75 2 C 7.296875 2.25 6.859375 2.527344 6.4375 2.828125 C 6.011719 3.128906 5.609375 3.453125 5.222656 3.800781 C 4.835938 4.148438 4.472656 4.519531 4.128906 4.90625 C 3.785156 5.296875 3.460938 5.703125 3.164062 6.128906 C 2.851562 6.570312 2.566406 7.03125 2.308594 7.503906 C 1.328125 9.324219 0.789062 11.265625 0.691406 13.332031 C 0.679688 13.5625 0.671875 13.796875 0.671875 14.03125 C 0.671875 14.585938 0.707031 15.136719 0.773438 15.6875 C 0.839844 16.238281 0.9375 16.78125 1.070312 17.320312 C 1.203125 17.859375 1.367188 18.386719 1.5625 18.90625 C 1.757812 19.421875 1.984375 19.929688 2.242188 20.417969 C 2.5 20.910156 2.785156 21.382812 3.101562 21.839844 C 3.414062 22.296875 3.757812 22.734375 4.125 23.148438 C 4.492188 23.5625 4.882812 23.957031 5.296875 24.324219 C 5.710938 24.691406 6.144531 25.035156 6.601562 25.347656 C 7.058594 25.664062 7.53125 25.953125 8.019531 26.210938 C 8.511719 26.46875 9.015625 26.695312 9.535156 26.894531 C 10.050781 27.089844 10.578125 27.257812 11.117188 27.390625 C 11.65625 27.523438 12.199219 27.625 12.75 27.691406 C 13.300781 27.761719 13.851562 27.792969 14.40625 27.796875 C 14.960938 27.796875 15.511719 27.765625 16.0625 27.699219 C 16.613281 27.632812 17.160156 27.535156 17.695312 27.402344 C 18.234375 27.273438 18.765625 27.109375 19.28125 26.914062 C 19.800781 26.71875 20.308594 26.492188 20.796875 26.234375 C 21.289062 25.980469 21.765625 25.695312 22.222656 25.382812 C 22.679688 25.066406 23.113281 24.726562 23.53125 24.359375 C 23.945312 23.996094 24.339844 23.605469 24.707031 23.191406 C 25.078125 22.777344 25.417969 22.34375 25.734375 21.886719 C 26.050781 21.433594 26.339844 20.960938 26.597656 20.46875 C 26.859375 19.980469 27.085938 19.476562 27.285156 18.957031 C 27.484375 18.441406 27.652344 17.914062 27.785156 17.375 C 27.917969 16.835938 28.019531 16.292969 28.089844 15.742188 C 28.160156 15.195312 28.195312 14.640625 28.195312 14.085938 C 28.199219 13.53125 28.167969 12.980469 28.101562 12.429688 C 28.039062 11.878906 27.941406 11.335938 27.808594 10.796875 C 27.679688 10.257812 27.519531 9.726562 27.324219 9.207031 C 27.128906 8.691406 26.902344 8.183594 26.648438 7.691406 C 26.394531 7.199219 26.109375 6.726562 25.796875 6.269531 C 25.484375 5.808594 25.144531 5.371094 24.777344 4.957031 Z M 9.839844 15.929688 C 11 16.746094 12.089844 17.234375 13.214844 17.417969 L 13.214844 15.234375 C 10.292969 14.566406 8.804688 13.566406 8.804688 11.316406 L 8.804688 11.28125 C 8.804688 9.140625 10.363281 7.652344 13.140625 7.453125 L 13.140625 6.417969 L 15.027344 6.417969 L 15.027344 7.507812 C 16.425781 7.652344 17.699219 8.125 18.855469 8.921875 L 17.367188 11.351562 C 16.625 10.84375 15.8125 10.484375 14.9375 10.273438 L 14.9375 12.378906 C 17.816406 13.050781 19.273438 14.085938 19.273438 16.335938 L 19.273438 16.371094 C 19.273438 18.585938 17.566406 19.945312 14.992188 20.183594 L 14.992188 21.960938 L 13.105469 21.960938 L 13.105469 20.132812 C 11.316406 19.960938 9.683594 19.363281 8.207031 18.335938 Z M 9.839844 15.929688 " fill-opacity="1" fill-rule="nonzero"/></g><path fill="#00bf63" d="M 16.132812 16.597656 L 16.132812 16.5625 C 16.132812 16.070312 15.859375 15.796875 14.917969 15.527344 L 14.917969 17.523438 C 15.753906 17.433594 16.132812 17.121094 16.132812 16.597656 Z M 16.132812 16.597656 " fill-opacity="1" fill-rule="nonzero"/><path fill="#00bf63" d="M 13.230469 10.101562 C 12.34375 10.175781 11.996094 10.539062 11.996094 11.011719 L 11.996094 11.046875 C 11.996094 11.515625 12.253906 11.789062 13.230469 12.0625 Z M 13.230469 10.101562 " fill-opacity="1" fill-rule="nonzero"/></svg>